<?xml version="1.0" encoding="utf-8"?>
<!-- Generator: Adobe Illustrator 27.8.0, SVG Export Plug-In . SVG Version: 6.00 Build 0)  -->
<svg version="1.1" id="Layer_1" xmlns="http://www.w3.org/2000/svg" xmlns:xlink="http://www.w3.org/1999/xlink" x="0px" y="0px"
	 width="300px" height="300px" viewBox="0 0 300 300" style="enable-background:new 0 0 300 300;" xml:space="preserve">
<style type="text/css">
	.st0{fill:#FFFFFF;}
</style>
<g>
	<path class="st0" d="M296.9,78.7c-1.9,7.4-3.9,14.7-5.7,22.1c-7,28.1-13.9,56.3-20.8,84.4c-1.9,7.5-5.4,10.2-13,10.2
		c-55.8,0-111.5,0-167.2,0c-7.8,0-11.3-2.7-13.1-10.4C65.5,137.2,54.1,89.3,42.7,41.4c-1-4-0.9-4-5.1-4c-7.9,0-15.9,0.1-23.8-0.1
		C8.3,37.2,3.9,33,3.2,27.7c-0.7-5.3,2.7-10.4,7.9-11.8c1.4-0.4,2.8-0.4,4.2-0.4c11.3,0,22.6,0,33.8,0c6.8,0,10.5,2.8,12.1,9.4
		c3,12.5,6,24.9,9,37.4c0.2,0.9,0.5,1.8,0.8,3c1.3,0,2.7,0,4,0c69.4,0,138.8,0,208.2,0c3.2,0,6.6-0.2,9,2.2c1.9,1.9,3.1,4.4,4.7,6.7
		C296.9,75.7,296.9,77.2,296.9,78.7z M76.2,87.5c6.9,28.8,13.7,57.4,20.5,86c0.8,0,1.4,0.1,1.9,0.1c49.8,0,99.6,0,149.4,0
		c1.9,0,2.6-0.5,3.1-2.4c4.9-20,9.8-39.9,14.8-59.9c2-7.9,3.9-15.8,5.9-23.8C206.6,87.5,141.6,87.5,76.2,87.5z"/>
	<path class="st0" d="M139.3,247.9c0.1,20.1-16.2,36.5-36.3,36.7c-20.3,0.2-36.8-16.1-36.9-36.4c-0.1-20.3,16.1-36.7,36.4-36.9
		C122.8,211.2,139.2,227.6,139.3,247.9z M117.3,248.1c0-8-6.4-14.6-14.4-14.7c-8.1-0.1-14.8,6.6-14.8,14.7
		c0.1,7.9,6.7,14.6,14.7,14.6C110.7,262.7,117.3,256.1,117.3,248.1z"/>
	<path class="st0" d="M199.1,248.1c-0.1-20.3,16.3-36.7,36.6-36.7c20.2,0,36.5,16.2,36.5,36.4c0.1,20.3-16.1,36.7-36.4,36.8
		C215.6,284.7,199.2,268.4,199.1,248.1z M221.1,247.9c-0.1,8,6.4,14.7,14.4,14.8c8,0.1,14.9-6.6,14.9-14.7c0-7.9-6.7-14.6-14.6-14.6
		C227.8,233.3,221.2,239.9,221.1,247.9z"/>
</g>
</svg>
