<?xml version="1.0" encoding="utf-8"?>
<!-- Generator: Adobe Illustrator 27.8.0, SVG Export Plug-In . SVG Version: 6.00 Build 0)  -->
<svg version="1.1" id="Layer_1" xmlns="http://www.w3.org/2000/svg" xmlns:xlink="http://www.w3.org/1999/xlink" x="0px" y="0px"
	 width="88.5px" height="85.5px" viewBox="0 0 88.5 85.5" style="enable-background:new 0 0 88.5 85.5;" xml:space="preserve">
<style type="text/css">
	.st0{fill:#FFFFFF;}
</style>
<path class="st0" d="M20.5,36.9H4.7c-2.2,0-3.9,1.8-3.9,3.9c0,2.2,1.8,3.9,3.9,3.9h15.7c2.2,0,3.9-1.8,3.9-3.9
	C24.4,38.6,22.6,36.9,20.5,36.9z"/>
<path class="st0" d="M83.4,36.9H67.7c-2.2,0-3.9,1.8-3.9,3.9c0,2.2,1.8,3.9,3.9,3.9h15.7c2.2,0,3.9-1.8,3.9-3.9
	C87.4,38.6,85.6,36.9,83.4,36.9z"/>
<path class="st0" d="M24.6,54.7L13.5,65.9c-1.5,1.5-1.5,4,0,5.6c0.8,0.8,1.8,1.2,2.8,1.2s2-0.4,2.8-1.2l11.1-11.1
	c1.5-1.5,1.5-4,0-5.6S26.1,53.2,24.6,54.7z"/>
<path class="st0" d="M69.1,10.2L58,21.3c-1.5,1.5-1.5,4,0,5.6c0.8,0.8,1.8,1.2,2.8,1.2s2-0.4,2.8-1.2l11.1-11.1c1.5-1.5,1.5-4,0-5.6
	C73.2,8.7,70.7,8.7,69.1,10.2z"/>
<path class="st0" d="M44.3,60.5c-2.2,0-3.9,1.8-3.9,3.9v15.7c0,2.2,1.8,3.9,3.9,3.9s3.9-1.8,3.9-3.9V64.4
	C48.3,62.3,46.5,60.5,44.3,60.5z"/>
<path class="st0" d="M63.6,54.7c-1.5-1.5-4-1.5-5.6,0c-1.5,1.5-1.5,4,0,5.6l11.1,11.1c0.8,0.8,1.8,1.2,2.8,1.2s2-0.4,2.8-1.2
	c1.5-1.5,1.5-4,0-5.6L63.6,54.7z"/>
<path class="st0" d="M40.4,4.9v15.7c0,2.2,1.8,3.9,3.9,3.9c1.1,0,2.1-0.4,2.8-1.2c0.7-0.7,1.2-1.7,1.2-2.8V4.8
	c0-2.2-1.8-3.9-3.9-3.9C42.2,1,40.4,2.7,40.4,4.9z"/>
<path class="st0" d="M13.2,16.3l11.1,11.1c1.5,1.5,4,1.5,5.6,0c0.8-0.8,1.2-1.8,1.2-2.8s-0.4-2-1.2-2.8l-11.1-11
	c-1.5-1.5-4-1.5-5.6,0C11.7,12.3,11.7,14.8,13.2,16.3z"/>
</svg>
