<?xml version="1.0" encoding="utf-8"?>
<!-- Generator: Adobe Illustrator 27.8.0, SVG Export Plug-In . SVG Version: 6.00 Build 0)  -->
<svg version="1.1" id="Layer_1" xmlns="http://www.w3.org/2000/svg" xmlns:xlink="http://www.w3.org/1999/xlink" x="0px" y="0px"
	 width="410px" height="410px" viewBox="0 0 410 410" style="enable-background:new 0 0 410 410;" xml:space="preserve">
<style type="text/css">
	.st0{fill:#FB2C36;}
	.st1{fill:#FBC2D8;}
	.st2{fill:#FEFCFD;}
	.st3{fill:#FEFCFD;stroke:#FFFFFF;stroke-width:10;stroke-miterlimit:10;}
</style>
<rect x="-1.3" y="-0.4" class="st0" width="412" height="411.5"/>
<path class="st1" d="M-220.9,76.8c35.5,0,70.9,0,106.4,0c1.7,0,2,0.3,2,2c-0.1,29.5,0,58.9,0,88.4c-35,0-70.1,0-105.1,0
	c-3.2,0-3.2,0-3.2-3.2C-220.9,134.9-220.9,105.9-220.9,76.8z M-204,123.6c-0.6,19,15.7,35.8,35.9,35.6c20.1-0.3,35.3-16.8,35.3-35.6
	c0-19.1-15.3-35.7-35.6-35.7C-188.9,87.9-204.6,104.9-204,123.6z"/>
<path class="st2" d="M-186.1,171.7c0,29,0,58.1,0,87.1c0,3.2,0,3.2,3.2,3.2c35,0,70.1,0,105.1,0c0.1,1-0.7,0.5-1,0.5
	c-35.5,0-71,0-106.5,0.1c-1.1,0-1.4-0.2-1.4-1.4c0-29.5,0-59,0.1-88.5C-186.6,172.4-187.1,171.6-186.1,171.7z"/>
<path class="st2" d="M-169.2,218.4c-0.6-18.6,15.1-35.7,35.5-35.7c20.3,0,35.6,16.6,35.6,35.7c0,18.8-15.1,35.3-35.3,35.6
	C-153.5,254.3-169.8,237.5-169.2,218.4z M-166.3,217.9c-0.8,17.5,13.6,33.1,32.5,33.1c18.5,0,32.4-14.4,32.7-32.2
	c0.3-18.7-14.9-33-32.9-33.1C-152,185.6-166.9,201-166.3,217.9z"/>
<path class="st1" d="M-121.4,18c-0.6-16.9,14.3-32.4,32.3-32.3c18,0.1,33.2,14.4,32.9,33.1c-0.3,17.8-14.2,32.2-32.7,32.2
	C-107.8,51.2-122.2,35.6-121.4,18z M-88.3,33.4c4.4,0,7.4-2.1,8.7-6.3c0.3-0.8,1.1-2-0.3-2.5c-1.3-0.5-1.9,0.2-2.4,1.6
	c-1.3,3.8-4.2,5.2-8,4.2c-2.1-0.6-3.3-2.1-3.9-4.1c-0.4-1.4-1.4-1.6-2.5-1.2c-1.3,0.4-0.5,1.4-0.3,2.1
	C-95.8,31.2-92.7,33.4-88.3,33.4z M-111.5,20.1c-0.2-1.2-0.7-2.1-2-2.1c-1.2,0-1.9,0.8-1.8,1.9c0,1.2,0.5,2.4,2,2.4
	C-112,22.3-111.8,21.1-111.5,20.1z M-60.8,20.1c-0.2-1.2-0.8-2.1-2.1-2c-1.3,0.1-1.8,1.2-1.7,2.3c0,1,0.5,2,1.7,2.1
	C-61.3,22.4-61,21.2-60.8,20.1z"/>
<path class="st2" d="M-133.2,233.3c-4.4,0-7.5-2.2-8.7-6.3c-0.2-0.7-1-1.7,0.3-2.1c1.1-0.4,2.2-0.1,2.5,1.2c0.6,2.1,1.7,3.5,3.9,4.1
	c3.8,1,6.7-0.4,8-4.2c0.5-1.4,1-2.1,2.4-1.6c1.4,0.5,0.6,1.7,0.3,2.5C-125.8,231.2-128.8,233.3-133.2,233.3z"/>
<path class="st2" d="M-156.4,220c-0.3,1-0.5,2.2-1.9,2.3c-1.5,0-1.9-1.2-2-2.4c0-1.1,0.7-1.9,1.8-1.9
	C-157.1,217.9-156.5,218.8-156.4,220z"/>
<path class="st2" d="M-105.6,220c-0.3,1.1-0.5,2.4-2.1,2.3c-1.2,0-1.7-1.1-1.7-2.1c0-1.1,0.4-2.2,1.7-2.3
	C-106.4,217.9-105.8,218.7-105.6,220z"/>
<g>
	<path class="st3" d="M57.8,205.2c-2.6-77.1,62.4-147.8,146.9-147.7c84.1,0.1,147.5,68.7,147.5,147.7c0,77.6-62.7,146.2-146,147.2
		C123,353.5,55.5,284,57.8,205.2z M70.1,203.2c-3.3,72.6,56.2,137.1,134.5,136.9c76.4-0.2,134.3-59.6,135.4-133.5
		c1.2-77.4-61.5-136.8-136.2-137.1C129.2,69.2,67.5,133.1,70.1,203.2z"/>
	<path class="st3" d="M207,266.7c-18.2,0-31-9.1-35.9-25.9c-0.8-2.8-4.1-6.9,1.1-8.6c4.6-1.5,8.9-0.6,10.5,5.1
		c2.3,8.5,7.1,14.6,16,17c15.5,4.3,27.8-1.6,33.1-17.3c1.9-5.7,4.3-8.7,9.9-6.7c5.9,2.2,2.4,6.9,1.3,10.4
		C237.5,258.1,225.4,266.7,207,266.7z"/>
	<path class="st3" d="M111.2,211.7c-1.2,4.3-2.2,9.3-7.8,9.4c-6.2,0.1-7.9-4.9-8.1-9.8c-0.2-4.6,2.7-7.9,7.5-8
		C108.2,203,110.5,206.6,111.2,211.7z"/>
	<path class="st3" d="M321.1,211.5c-1.2,4.6-2.2,9.7-8.5,9.6c-5-0.1-7-4.4-7.2-8.5c-0.2-4.5,1.6-9.1,7.2-9.4
		C317.9,202.8,320.3,206.5,321.1,211.5z"/>
</g>
</svg>
